<svg width="18" height="18" viewBox="0 0 18 18" fill="none" xmlns="http://www.w3.org/2000/svg">
  <path fill-rule="evenodd" clip-rule="evenodd"
        d="M3 0C1.34314 0 0 1.34315 0 3V15C0 16.6569 1.34315 18 3 18H5C6.65685 18 8 16.6569 8 15V3C8 1.34315 6.65685 0 5 0H3ZM2 3C2 2.44772 2.44772 2 3 2H5C5.55228 2 6 2.44772 6 3V15C6 15.5523 5.55228 16 5 16H3C2.44772 16 2 15.5523 2 15V3Z"/>
  <path fill-rule="evenodd" clip-rule="evenodd"
        d="M13 0C11.3431 0 10 1.34315 10 3V15C10 16.6569 11.3431 18 13 18H15C16.6569 18 18 16.6569 18 15V3C18 1.34315 16.6569 0 15 0H13ZM12 3C12 2.44772 12.4477 2 13 2H15C15.5523 2 16 2.44772 16 3V15C16 15.5523 15.5523 16 15 16H13C12.4477 16 12 15.5523 12 15V3Z"/>
</svg>
