<svg width="18" height="18" viewBox="0 0 18 18" fill="none" xmlns="http://www.w3.org/2000/svg">
  <path
    d="M9.00088 6.29979C7.50971 6.29979 6.30088 7.50862 6.30088 8.99979C6.30088 10.491 7.50971 11.6998 9.00088 11.6998C10.492 11.6998 11.7009 10.491 11.7009 8.99979C11.7009 7.50862 10.492 6.29979 9.00088 6.29979ZM8.10088 8.99979C8.10088 8.50274 8.50382 8.09979 9.00088 8.09979C9.49793 8.09979 9.90088 8.50274 9.90088 8.99979C9.90088 9.49685 9.49793 9.89979 9.00088 9.89979C8.50382 9.89979 8.10088 9.49685 8.10088 8.99979Z"/>
  <path
    d="M11.4093 0.325928C10.4342 0.0556975 9.53948 0.687012 9.29402 1.54613L9.22155 1.79977L8.77929 1.79977L8.70686 1.54626C8.46139 0.6871 7.56656 0.0557772 6.59149 0.326084C5.87827 0.5238 5.20079 0.807004 4.57088 1.1638C3.6908 1.66228 3.50402 2.74116 3.93813 3.52256L4.06581 3.75239L3.75309 4.06511L3.52332 3.93747C2.74191 3.50335 1.663 3.69015 1.16453 4.57027C0.807781 5.20017 0.524613 5.87761 0.326925 6.5908C0.0566473 7.56587 0.687968 8.46067 1.54711 8.70613L1.80086 8.77864L1.80086 9.22089L1.54711 9.29339C0.687967 9.53886 0.0566462 10.4337 0.326923 11.4087C0.52461 12.1219 0.807778 12.7994 1.16453 13.4293C1.66299 14.3094 2.7419 14.4962 3.52332 14.0621L3.75309 13.9344L4.06581 14.2471L3.93812 14.477C3.50402 15.2584 3.6908 16.3373 4.57087 16.8357C5.20077 17.1925 5.87821 17.4757 6.5914 17.6734C7.56648 17.9437 8.46131 17.3124 8.70679 16.4533L8.77921 16.1998L9.22147 16.1998L9.29395 16.4534C9.53941 17.3125 10.4342 17.9439 11.4092 17.6736C12.1225 17.4759 12.8001 17.1928 13.4301 16.836C14.3102 16.3375 14.497 15.2586 14.0629 14.4772L13.9353 14.2474L14.248 13.9347L14.4778 14.0624C15.2592 14.4965 16.3381 14.3097 16.8366 13.4297C17.1934 12.7997 17.4767 12.1221 17.6744 11.4087C17.9447 10.4337 17.3134 9.53888 16.4542 9.29341L16.2004 9.22089V8.77864L16.4542 8.70612C17.3134 8.46065 17.9447 7.56585 17.6744 6.59078C17.4767 5.87755 17.1935 5.20007 16.8367 4.57014C16.3383 3.69004 15.2594 3.50325 14.478 3.93736L14.248 4.06511L13.9353 3.75239L14.063 3.52245C14.4971 2.74104 14.3103 1.66214 13.4302 1.16367C12.8002 0.806842 12.1226 0.523627 11.4093 0.325928ZM10.9523 2.29427L11.0123 2.0843C11.5229 2.23256 12.0103 2.43595 12.4676 2.68773L12.3618 2.87823C11.9715 3.58076 12.0942 4.4569 12.6625 5.02518L12.9752 5.3379C13.5435 5.90618 14.4196 6.02889 15.1222 5.63859L15.3127 5.53275C15.5644 5.98998 15.7678 6.47728 15.916 6.98786L15.7059 7.04789C14.9332 7.26868 14.4004 7.97497 14.4004 8.77864V9.22089C14.4004 10.0246 14.9332 10.7309 15.7059 10.9516L15.9161 11.0117C15.7678 11.5223 15.5644 12.0097 15.3126 12.467L15.1222 12.3612C14.4196 11.9709 13.5435 12.0937 12.9752 12.6619L12.6625 12.9747C12.0942 13.5429 11.9715 14.4191 12.3618 15.1216L12.4675 15.3119C12.0102 15.5636 11.5229 15.767 11.0122 15.9153L10.9522 15.7053C10.7314 14.9325 10.0251 14.3998 9.22147 14.3998H8.77921C7.97555 14.3998 7.26925 14.9325 7.04847 15.7053L6.98852 15.9151C6.47798 15.7668 5.99071 15.5634 5.53351 15.3117L5.6393 15.1213C6.02959 14.4188 5.90688 13.5426 5.3386 12.9743L5.02588 12.6616C4.45761 12.0933 3.58146 11.9706 2.87893 12.3609L2.6886 12.4667C2.43688 12.0095 2.23353 11.5222 2.08528 11.0117L2.29536 10.9516C3.0681 10.7309 3.60086 10.0246 3.60086 9.22089V8.77864C3.60086 7.97497 3.0681 7.26868 2.29536 7.04789L2.08528 6.98787C2.23353 6.47733 2.43688 5.99006 2.6886 5.53286L2.87893 5.6386C3.58146 6.02889 4.45761 5.90618 5.02588 5.33791L5.33861 5.02518C5.90688 4.45691 6.02959 3.58076 5.6393 2.87823L5.53352 2.68783C5.99074 2.43608 6.47803 2.2327 6.9886 2.08443L7.04855 2.29427C7.26933 3.06701 7.97563 3.59977 8.77929 3.59977H9.22155C10.0252 3.59977 10.7315 3.06701 10.9523 2.29427ZM5.53352 2.68783C5.50825 2.70174 5.48308 2.7158 5.458 2.73001C5.46992 2.72326 5.48314 2.71203 5.49377 2.69761C5.5038 2.68399 5.50841 2.67183 5.51035 2.66387C5.51242 2.6554 5.51188 2.65047 5.51146 2.64849L5.53352 2.68783ZM2.6886 5.53286L2.64917 5.51095C2.65115 5.51138 2.65617 5.51176 2.66464 5.50969C2.67259 5.50775 2.68476 5.50314 2.69838 5.4931C2.7128 5.48248 2.72402 5.46925 2.73078 5.45733C2.71657 5.48241 2.70251 5.50759 2.6886 5.53286ZM2.08528 6.98787C2.0772 7.01572 2.06928 7.04363 2.06152 7.07161C2.06521 7.05831 2.06663 7.04092 2.06393 7.0231C2.06138 7.00628 2.05601 6.99434 2.05173 6.9873C2.04717 6.97979 2.04327 6.97666 2.04156 6.97556L2.08528 6.98787ZM2.08528 11.0117L2.04161 11.0241C2.04093 11.0243 2.04063 11.0245 2.04063 11.0245C2.04063 11.0245 2.0403 11.0247 2.04063 11.0245C2.04063 11.0245 2.04093 11.0243 2.04161 11.0241C2.04332 11.023 2.04717 11.0197 2.05173 11.0122C2.05601 11.0052 2.06138 10.9932 2.06393 10.9764C2.06663 10.9586 2.0652 10.9412 2.06152 10.9279C2.06927 10.9559 2.0772 10.9838 2.08528 11.0117ZM2.6886 12.4667C2.70251 12.4919 2.71657 12.5171 2.73077 12.5422C2.72402 12.5303 2.7128 12.5171 2.69837 12.5064C2.68475 12.4964 2.67259 12.4918 2.66464 12.4898C2.65617 12.4878 2.65123 12.4883 2.64925 12.4887C2.64884 12.4888 2.64941 12.4887 2.64925 12.4887L2.6886 12.4667ZM5.53351 15.3117L5.51161 15.3511C5.51092 15.3524 5.51131 15.3525 5.51161 15.3511C5.51204 15.3492 5.51242 15.3441 5.51035 15.3357C5.50841 15.3277 5.50379 15.3155 5.49376 15.3019C5.48314 15.2875 5.46991 15.2763 5.45799 15.2695C5.48307 15.2837 5.50825 15.2978 5.53351 15.3117ZM6.98852 15.9151C7.01637 15.9232 7.04429 15.9311 7.07227 15.9388C7.05897 15.9352 7.04157 15.9337 7.02376 15.9364C7.00693 15.939 6.99499 15.9444 6.98795 15.9486C6.98044 15.9532 6.97731 15.9571 6.97621 15.9588C6.97546 15.96 6.97582 15.9602 6.97621 15.9588L6.98852 15.9151ZM11.0122 15.9153L11.0247 15.9589C11.0251 15.9603 11.0254 15.9601 11.0247 15.9589C11.0236 15.9572 11.0203 15.9534 11.0128 15.9488C11.0057 15.9445 10.9938 15.9392 10.977 15.9366C10.9592 15.9339 10.9418 15.9353 10.9285 15.939C10.9565 15.9313 10.9844 15.9233 11.0122 15.9153ZM12.4675 15.3119C12.4928 15.298 12.518 15.2839 12.543 15.2697C12.5311 15.2765 12.5179 15.2877 12.5073 15.3021C12.4972 15.3157 12.4926 15.3279 12.4907 15.3358C12.4886 15.3443 12.4891 15.3492 12.4896 15.3512C12.4899 15.3526 12.4903 15.3525 12.4896 15.3512L12.4675 15.3119ZM15.3126 12.467L15.352 12.4889C15.3532 12.4896 15.3533 12.4892 15.352 12.4889C15.35 12.4885 15.345 12.4881 15.3365 12.4902C15.3286 12.4921 15.3164 12.4967 15.3028 12.5068C15.2884 12.5174 15.2771 12.5306 15.2704 12.5425C15.2846 12.5175 15.2986 12.4923 15.3126 12.467ZM15.9161 11.0117C15.9241 10.9838 15.9321 10.9559 15.9398 10.9279C15.9361 10.9412 15.9347 10.9586 15.9374 10.9764C15.94 10.9933 15.9453 11.0052 15.9496 11.0122C15.9542 11.0198 15.9581 11.0229 15.9598 11.024C15.9609 11.0247 15.9611 11.0244 15.9598 11.024L15.9161 11.0117ZM15.916 6.98786L15.9597 6.97538C15.958 6.97648 15.9542 6.97977 15.9496 6.98728C15.9453 6.99432 15.9399 7.00626 15.9374 7.02309C15.9347 7.0409 15.9361 7.0583 15.9398 7.0716C15.9321 7.04362 15.9241 7.0157 15.916 6.98786ZM15.3521 5.51084L15.3127 5.53275C15.2988 5.50748 15.2847 5.48231 15.2705 5.45723C15.2773 5.46915 15.2885 5.48237 15.3029 5.493C15.3165 5.50303 15.3287 5.50765 15.3366 5.50959C15.3451 5.51165 15.3501 5.51127 15.3521 5.51084ZM15.3529 5.51043C15.353 5.51041 15.353 5.51039 15.3529 5.51043V5.51043ZM12.4676 2.68773L12.4895 2.64829C12.4891 2.65028 12.4887 2.6553 12.4908 2.66377C12.4927 2.67172 12.4974 2.68389 12.5074 2.6975C12.518 2.71193 12.5312 2.72315 12.5432 2.7299C12.5181 2.7157 12.4929 2.70164 12.4676 2.68773Z"/>
</svg>
