<svg width="39" height="39" viewBox="0 0 39 39" fill="none" xmlns="http://www.w3.org/2000/svg">
<path d="M19.5 0.75C9.15 0.75 0.75 9.15 0.75 19.5C0.75 29.85 9.15 38.25 19.5 38.25C29.85 38.25 38.25 29.85 38.25 19.5C38.25 9.15 29.85 0.75 19.5 0.75ZM19.5 34.5C11.2313 34.5 4.5 27.7687 4.5 19.5C4.5 11.2313 11.2313 4.5 19.5 4.5C27.7687 4.5 34.5 11.2313 34.5 19.5C34.5 27.7687 27.7687 34.5 19.5 34.5ZM26.775 12.5437L15.75 23.5688L12.225 20.0438C11.8744 19.6932 11.3989 19.4962 10.9031 19.4962C10.4073 19.4962 9.93183 19.6932 9.58125 20.0438C9.23067 20.3943 9.03371 20.8698 9.03371 21.3656C9.03371 21.8614 9.23067 22.3369 9.58125 22.6875L14.4375 27.5438C15.1688 28.275 16.35 28.275 17.0812 27.5438L29.4375 15.1875C29.6113 15.014 29.7492 14.808 29.8433 14.5812C29.9374 14.3543 29.9858 14.1112 29.9858 13.8656C29.9858 13.6201 29.9374 13.3769 29.8433 13.1501C29.7492 12.9233 29.6113 12.7172 29.4375 12.5437C28.7062 11.8125 27.5063 11.8125 26.775 12.5437Z" fill="#FD03C6"/>
</svg>
