<svg width="131" height="18" viewBox="0 0 131 18" fill="none" xmlns="http://www.w3.org/2000/svg">
<path d="M5.86185 14.7991L0.355469 7.4541L1.13063 7.7494L3.20951 8.5409L5.86185 14.7991Z" fill="#FD03C6"/>
<path d="M13.6392 7.4541L8.13281 14.7991L10.7852 8.5409L12.5644 7.86363L13.6392 7.4541Z" fill="#FD03C6"/>
<path d="M10.1653 8.5874L7.00064 16.0547L3.83594 8.5874H10.1653Z" fill="#FD03C6"/>
<path d="M6.53 4.17743L6.46853 4.25126L3.33254 8.00198L0 6.73301L2.78963 2.90479L6.53 4.17743Z" fill="#FD03C6"/>
<path d="M10.2768 2.64157L6.99877 3.75701L3.7207 2.64157L6.99877 1.94482L10.2768 2.64157Z" fill="#FD03C6"/>
<path d="M14.0011 6.73301L10.6682 8.00198L7.4707 4.17743L11.2111 2.90479L14.0011 6.73301Z" fill="#FD03C6"/>
<path d="M9.98536 8.05417H4.00195L6.99366 4.47607L9.98536 8.05417Z" fill="#FD03C6"/>
<path d="M24.5312 13.9453C25.25 13.9453 25.9193 13.8359 26.5391 13.6172C27.1641 13.3984 27.6693 13.1016 28.0547 12.7266V10.7422H24.7656V9.49219H29.4297V13.2891C28.8464 13.8828 28.1302 14.3438 27.2812 14.6719C26.4375 14.9948 25.5208 15.1562 24.5312 15.1562C23.3854 15.1562 22.3984 14.9245 21.5703 14.4609C20.7422 13.9974 20.1042 13.3385 19.6562 12.4844C19.2083 11.625 18.9844 10.612 18.9844 9.44531C18.9844 7.65885 19.4635 6.27604 20.4219 5.29688C21.3802 4.31771 22.7266 3.82812 24.4609 3.82812C25.6797 3.82812 26.6693 4.03385 27.4297 4.44531C28.1901 4.85677 28.776 5.51562 29.1875 6.42188L27.7656 6.84375C27.4531 6.21875 27.0208 5.76302 26.4688 5.47656C25.9219 5.1901 25.2396 5.04688 24.4219 5.04688C23.151 5.04688 22.1797 5.43229 21.5078 6.20312C20.8359 6.96875 20.5 8.04948 20.5 9.44531C20.5 10.8359 20.8568 11.9349 21.5703 12.7422C22.2839 13.5443 23.2708 13.9453 24.5312 13.9453ZM40.6172 13.7812V15H31.9453V3.99219H40.2969V5.21094H33.4375V8.74219H39.8281V9.94531H33.4375V13.7812H40.6172ZM46.9297 5.21094V15H45.4453V5.21094H41.6641V3.99219H50.7109V5.21094H46.9297ZM65.0703 7.30469C65.0703 7.9974 64.9167 8.59896 64.6094 9.10938C64.3021 9.61979 63.8646 10.0156 63.2969 10.2969C62.7344 10.5729 62.0625 10.7109 61.2812 10.7109H58.0469V15H56.5547V3.99219H61.1875C62.4219 3.99219 63.3776 4.28125 64.0547 4.85938C64.7318 5.4375 65.0703 6.2526 65.0703 7.30469ZM63.5703 7.32031C63.5703 5.89844 62.7161 5.1875 61.0078 5.1875H58.0469V9.53125H61.0703C61.9036 9.53125 62.5286 9.34896 62.9453 8.98438C63.362 8.61458 63.5703 8.0599 63.5703 7.32031ZM68.7188 10.4297V15H67.2266V3.99219H72.4062C73.6458 3.99219 74.6016 4.27083 75.2734 4.82812C75.9505 5.38021 76.2891 6.15104 76.2891 7.14062C76.2891 7.95833 76.0495 8.64583 75.5703 9.20312C75.0964 9.76042 74.4401 10.112 73.6016 10.2578L76.7266 15H75.0078L72.1484 10.4297H68.7188ZM74.7891 7.15625C74.7891 6.51562 74.5703 6.02865 74.1328 5.69531C73.7005 5.35677 73.0755 5.1875 72.2578 5.1875H68.7188V9.25H72.3203C73.1068 9.25 73.7135 9.06771 74.1406 8.70312C74.5729 8.33333 74.7891 7.81771 74.7891 7.15625ZM87.4609 13.7812V15H78.7891V3.99219H87.1406V5.21094H80.2812V8.74219H86.6719V9.94531H80.2812V13.7812H87.4609ZM90.7891 7.65625V15H89.4609V3.99219H91.4219L94.3516 11.625C94.4557 11.9323 94.5547 12.263 94.6484 12.6172C94.7474 12.9661 94.8125 13.2188 94.8438 13.375C94.875 13.2344 94.9271 13.0417 95 12.7969C95.0729 12.5469 95.1458 12.3073 95.2188 12.0781C95.2917 11.849 95.3438 11.6979 95.375 11.625L98.25 3.99219H100.164V15H98.8203V7.65625C98.8203 7.25 98.8255 6.85156 98.8359 6.46094C98.8516 6.07031 98.8698 5.6875 98.8906 5.3125C98.7604 5.77604 98.638 6.19271 98.5234 6.5625C98.4141 6.92708 98.3073 7.23958 98.2031 7.5L95.3594 15H94.3125L91.4297 7.5L90.7344 5.3125C90.7448 5.70312 90.7552 6.09375 90.7656 6.48438C90.7812 6.875 90.7891 7.26562 90.7891 7.65625ZM104.445 3.99219V15H102.953V3.99219H104.445ZM111.641 15.1562C110.74 15.1562 109.953 14.9896 109.281 14.6562C108.609 14.3229 108.089 13.8464 107.719 13.2266C107.349 12.6068 107.164 11.8646 107.164 11V3.99219H108.656V10.875C108.656 11.8802 108.911 12.6432 109.422 13.1641C109.932 13.6849 110.669 13.9453 111.633 13.9453C112.622 13.9453 113.391 13.6771 113.938 13.1406C114.49 12.599 114.766 11.8099 114.766 10.7734V3.99219H116.25V10.8594C116.25 11.75 116.06 12.5156 115.68 13.1562C115.305 13.7969 114.771 14.2917 114.078 14.6406C113.391 14.9844 112.578 15.1562 111.641 15.1562ZM120.133 7.65625V15H118.805V3.99219H120.766L123.695 11.625C123.799 11.9323 123.898 12.263 123.992 12.6172C124.091 12.9661 124.156 13.2188 124.188 13.375C124.219 13.2344 124.271 13.0417 124.344 12.7969C124.417 12.5469 124.49 12.3073 124.562 12.0781C124.635 11.849 124.688 11.6979 124.719 11.625L127.594 3.99219H129.508V15H128.164V7.65625C128.164 7.25 128.169 6.85156 128.18 6.46094C128.195 6.07031 128.214 5.6875 128.234 5.3125C128.104 5.77604 127.982 6.19271 127.867 6.5625C127.758 6.92708 127.651 7.23958 127.547 7.5L124.703 15H123.656L120.773 7.5L120.078 5.3125C120.089 5.70312 120.099 6.09375 120.109 6.48438C120.125 6.875 120.133 7.26562 120.133 7.65625Z" fill="url(#paint0_linear_1010_1694)"/>
<defs>
<linearGradient id="paint0_linear_1010_1694" x1="21.2518" y1="9.13554" x2="138.641" y2="16.2119" gradientUnits="userSpaceOnUse">
<stop offset="0.0019186" stop-color="#FD03C6"/>
<stop offset="0.774105" stop-color="#4680F1"/>
</linearGradient>
</defs>
</svg>
