<svg width="18" height="18" viewBox="0 0 18 18" fill="none" xmlns="http://www.w3.org/2000/svg">
<path d="M15.1259 2.84206C13.0147 1.31205 10.4077 2.02606 9.00022 3.77707C7.59276 2.02606 4.98576 1.30355 2.87457 2.84206C1.75501 3.65807 1.05128 5.03508 1.00329 6.48859C0.891337 9.78662 3.64228 12.4301 7.84067 16.4847L7.92063 16.5612C8.5284 17.1477 9.46404 17.1477 10.0718 16.5527L10.1598 16.4677C14.3582 12.4216 17.1011 9.77812 16.9971 6.48009C16.9492 5.03508 16.2454 3.65807 15.1259 2.84206ZM9.08019 15.2182L9.00022 15.3032L8.92025 15.2182C5.11371 11.5546 2.60268 9.13212 2.60268 6.6756C2.60268 4.97558 3.80222 3.70057 5.4016 3.70057C6.63313 3.70057 7.83267 4.54208 8.25651 5.70659H9.75193C10.1678 4.54208 11.3673 3.70057 12.5988 3.70057C14.1982 3.70057 15.3978 4.97558 15.3978 6.6756C15.3978 9.13212 12.8867 11.5546 9.08019 15.2182Z" fill="#106065"/>
</svg>
