<svg width="18" height="18" viewBox="0 0 18 18" fill="none" xmlns="http://www.w3.org/2000/svg">
<path d="M11.2487 1.7998V4.4998C11.2487 4.99686 11.6517 5.3998 12.1487 5.3998H14.8487M6.29872 5.3998H8.09872M6.29872 8.0998H11.6987M6.29872 10.7998H11.6987M13.4987 3.1498C13.0982 2.79141 12.6825 2.36634 12.4201 2.09026C12.2455 1.90656 12.0042 1.7998 11.7508 1.7998H4.94851C3.9544 1.7998 3.14851 2.60569 3.14851 3.59979L3.14844 14.3998C3.14843 15.3939 3.95432 16.1998 4.94843 16.1998L13.0485 16.1998C14.0426 16.1998 14.8484 15.3939 14.8485 14.3998L14.8487 4.85818C14.8487 4.62805 14.7609 4.40683 14.6012 4.24115C14.3059 3.93479 13.8127 3.43069 13.4987 3.1498Z" stroke="#106065" stroke-width="1.5" stroke-linecap="round" stroke-linejoin="round"/>
</svg>
