<svg width="18" height="18" viewBox="0 0 18 18" fill="none" xmlns="http://www.w3.org/2000/svg">
<path d="M2.17045 14.3195C1.87756 14.6124 1.87756 15.0872 2.17045 15.3801C2.46334 15.673 2.93822 15.673 3.23111 15.3801L2.17045 14.3195ZM6.30078 11.2498L6.83111 10.7195C6.53822 10.4266 6.06334 10.4266 5.77045 10.7195L6.30078 11.2498ZM8.10078 13.0498L7.57045 13.5801C7.86334 13.873 8.33822 13.873 8.63111 13.5801L8.10078 13.0498ZM12.1508 8.9998L12.6811 8.46947C12.3882 8.17658 11.9133 8.17658 11.6205 8.46947L12.1508 8.9998ZM15.2204 13.1301C15.5133 13.423 15.9882 13.423 16.2811 13.1301C16.574 12.8372 16.574 12.3624 16.2811 12.0695L15.2204 13.1301ZM3.23111 15.3801L6.83111 11.7801L5.77045 10.7195L2.17045 14.3195L3.23111 15.3801ZM5.77045 11.7801L7.57045 13.5801L8.63111 12.5195L6.83111 10.7195L5.77045 11.7801ZM8.63111 13.5801L12.6811 9.53013L11.6205 8.46947L7.57045 12.5195L8.63111 13.5801ZM11.6205 9.53013L15.2204 13.1301L16.2811 12.0695L12.6811 8.46947L11.6205 9.53013ZM4.50078 2.5498H13.5008V1.0498H4.50078V2.5498ZM15.4508 4.4998V13.4998H16.9508V4.4998H15.4508ZM13.5008 15.4498H4.50078V16.9498H13.5008V15.4498ZM2.55078 13.4998V4.4998H1.05078V13.4998H2.55078ZM4.50078 15.4498C3.42383 15.4498 2.55078 14.5768 2.55078 13.4998H1.05078C1.05078 15.4052 2.5954 16.9498 4.50078 16.9498V15.4498ZM15.4508 13.4998C15.4508 14.5768 14.5777 15.4498 13.5008 15.4498V16.9498C15.4062 16.9498 16.9508 15.4052 16.9508 13.4998H15.4508ZM13.5008 2.5498C14.5777 2.5498 15.4508 3.42285 15.4508 4.4998H16.9508C16.9508 2.59442 15.4062 1.0498 13.5008 1.0498V2.5498ZM4.50078 1.0498C2.5954 1.0498 1.05078 2.59442 1.05078 4.4998H2.55078C2.55078 3.42285 3.42383 2.5498 4.50078 2.5498V1.0498ZM6.45078 5.8498C6.45078 6.18118 6.18215 6.4498 5.85078 6.4498V7.9498C7.01058 7.9498 7.95078 7.0096 7.95078 5.8498H6.45078ZM5.85078 6.4498C5.51941 6.4498 5.25078 6.18118 5.25078 5.8498H3.75078C3.75078 7.0096 4.69098 7.9498 5.85078 7.9498V6.4498ZM5.25078 5.8498C5.25078 5.51843 5.51941 5.2498 5.85078 5.2498V3.7498C4.69098 3.7498 3.75078 4.69001 3.75078 5.8498H5.25078ZM5.85078 5.2498C6.18215 5.2498 6.45078 5.51843 6.45078 5.8498H7.95078C7.95078 4.69001 7.01058 3.7498 5.85078 3.7498V5.2498Z" fill="#106065"/>
</svg>
