<svg width="24" height="22" viewBox="0 0 24 22" fill="none" xmlns="http://www.w3.org/2000/svg">
  <path
    d="M21.0197 2.01179C17.9903 -0.0537322 14.2494 0.910176 12.2298 3.27405C10.2102 0.910176 6.46932 -0.065207 3.4399 2.01179C1.83339 3.11339 0.823578 4.97236 0.754727 6.9346C0.594076 11.3869 4.54151 14.9557 10.5659 20.4293L10.6807 20.5326C11.5528 21.3244 12.8954 21.3244 13.7675 20.5211L13.8937 20.4064C19.9181 14.9442 23.8541 11.3755 23.7049 6.92313C23.6361 4.97236 22.6263 3.11339 21.0197 2.01179ZM12.3446 18.7195L12.2298 18.8343L12.1151 18.7195C6.65293 13.7738 3.04975 10.5034 3.04975 7.18705C3.04975 4.89203 4.77101 3.17077 7.06603 3.17077C8.83319 3.17077 10.5545 4.3068 11.1626 5.87889H13.3085C13.9052 4.3068 15.6264 3.17077 17.3936 3.17077C19.6886 3.17077 21.4099 4.89203 21.4099 7.18705C21.4099 10.5034 17.8067 13.7738 12.3446 18.7195Z"
    fill="white"/>
</svg>
