<svg width="16" height="20" viewBox="0 0 16 20" fill="none" xmlns="http://www.w3.org/2000/svg">
  <path
    d="M8.00049 13C8.55277 13 9.00049 12.5523 9.00049 12C9.00049 11.4477 8.55277 11 8.00049 11C7.4482 11 7.00049 11.4477 7.00049 12C7.00049 12.5523 7.4482 13 8.00049 13Z"
    fill="#FD03C6"/>
  <path fill-rule="evenodd" clip-rule="evenodd"
        d="M15.6951 12.3527C15.855 10.0912 14.4896 8.0946 12.5005 7.33061V4C12.5005 1.79086 10.7096 1.19209e-07 8.50049 1.19209e-07L7.50049 0C5.29135 -1.19209e-07 3.50049 1.79086 3.50049 4L3.50049 7.33054C1.51131 8.09449 0.145767 10.0911 0.305673 12.3527L0.517795 15.3527C0.702909 17.9707 2.88077 20 5.50534 20H10.4955C13.1201 20 15.2979 17.9707 15.483 15.3527L15.6951 12.3527ZM10.5005 4L10.5005 7H5.50049V4C5.50049 2.89543 6.39592 2 7.50049 2H8.50049C9.60506 2 10.5005 2.89543 10.5005 4ZM5.29322 9C3.55305 9 2.17796 10.4758 2.30069 12.2116L2.51281 15.2116C2.62388 16.7824 3.9306 18 5.50534 18H10.4955C12.0702 18 13.3769 16.7824 13.488 15.2116L13.7001 12.2116C13.8229 10.4758 12.4478 9 10.7076 9H5.29322Z"
        fill="#FD03C6"/>
</svg>
