<svg width="20" height="22" viewBox="0 0 20 22" fill="none" xmlns="http://www.w3.org/2000/svg">
<path fill-rule="evenodd" clip-rule="evenodd" d="M17.8653 8.56544C17.4336 8.08717 16.6958 8.04947 16.2176 8.48124L11.166 13.0417V1.66667C11.166 1.02233 10.6437 0.5 9.99935 0.5C9.35502 0.5 8.83268 1.02233 8.83268 1.66667L8.83268 13.0417L3.78114 8.48124C3.30287 8.04947 2.56514 8.08717 2.13337 8.56544C1.7016 9.0437 1.73929 9.78143 2.21756 10.2132L9.21756 16.5326C9.66165 16.9336 10.337 16.9336 10.7811 16.5326L17.7811 10.2132C18.2594 9.78143 18.2971 9.0437 17.8653 8.56544Z" fill="white"/>
<path fill-rule="evenodd" clip-rule="evenodd" d="M0.666016 20.3333C0.666016 19.689 1.18835 19.1667 1.83268 19.1667L18.166 19.1667C18.8104 19.1667 19.3327 19.689 19.3327 20.3333C19.3327 20.9777 18.8104 21.5 18.166 21.5L1.83268 21.5C1.18835 21.5 0.666016 20.9777 0.666016 20.3333Z" fill="white"/>
</svg>
