<svg width="296" height="81" viewBox="0 0 296 81" fill="none" xmlns="http://www.w3.org/2000/svg">
<path d="M12.5605 22.2734C15.7012 22.2734 17.875 20.7031 19.082 17.5625L23.5996 19.2676C22.627 21.6582 21.1973 23.4395 19.3105 24.6113C17.4355 25.7715 15.1855 26.3516 12.5605 26.3516C9.91211 26.3516 7.65625 25.8477 5.79297 24.8398C3.92969 23.8203 2.50586 22.3496 1.52148 20.4277C0.548828 18.5059 0.0625 16.1973 0.0625 13.502C0.0625 10.7832 0.53125 8.48633 1.46875 6.61133C2.40625 4.73633 3.78906 3.3125 5.61719 2.33984C7.44531 1.35547 9.68359 0.863281 12.332 0.863281C15.2383 0.863281 17.6055 1.44922 19.4336 2.62109C21.2617 3.78125 22.5449 5.49219 23.2832 7.75391L18.7129 9.00195C18.3262 7.75977 17.5645 6.77539 16.4277 6.04883C15.3027 5.31055 13.9727 4.94141 12.4375 4.94141C10.0938 4.94141 8.3125 5.66797 7.09375 7.12109C5.88672 8.57422 5.2832 10.7012 5.2832 13.502C5.2832 15.4004 5.55859 17 6.10938 18.3008C6.67188 19.6016 7.49219 20.5918 8.57031 21.2715C9.66016 21.9395 10.9902 22.2734 12.5605 22.2734ZM37.3105 26.3516C35.0371 26.3516 33.1152 25.9824 31.5449 25.2441C29.9746 24.4941 28.7852 23.4043 27.9766 21.9746C27.168 20.5332 26.7637 18.7812 26.7637 16.7188V1.23242H31.9492V16.3145C31.9492 18.2715 32.4121 19.7598 33.3379 20.7793C34.2754 21.7871 35.6465 22.291 37.4512 22.291C39.3027 22.291 40.7266 21.7637 41.7227 20.709C42.7188 19.6426 43.2168 18.1191 43.2168 16.1387V1.23242H48.4023V16.4551C48.4023 18.541 47.9629 20.3223 47.084 21.7988C46.2168 23.2754 44.957 24.4062 43.3047 25.1914C41.6523 25.9648 39.6543 26.3516 37.3105 26.3516ZM73.2227 18.8633C73.2227 21.2891 72.3203 23.1465 70.5156 24.4355C68.7227 25.7129 66.0859 26.3516 62.6055 26.3516C56.3359 26.3516 52.6855 24.084 51.6543 19.5488L56.6641 18.7227C57.0039 20.0352 57.666 20.9902 58.6504 21.5879C59.6348 22.1738 61 22.4668 62.7461 22.4668C64.5625 22.4668 65.9219 22.1914 66.8242 21.6406C67.7266 21.0898 68.1777 20.2637 68.1777 19.1621C68.1777 18.459 67.9727 17.8789 67.5625 17.4219C67.1523 16.9648 66.5664 16.584 65.8047 16.2793C65.4297 16.127 64.8789 15.9629 64.1523 15.7871C63.4258 15.5996 62.5234 15.3945 61.4453 15.1719C60.2031 14.8789 59.2305 14.6328 58.5273 14.4336C57.8242 14.2227 57.2617 14.0234 56.8398 13.8359C56.418 13.6367 56.0078 13.4199 55.6094 13.1855C54.7305 12.6582 54.0449 11.9551 53.5527 11.0762C53.0605 10.1973 52.8145 9.10156 52.8145 7.78906C52.8145 5.55078 53.6523 3.83984 55.3281 2.65625C57.0156 1.46094 59.4648 0.863281 62.6758 0.863281C65.7461 0.863281 68.0488 1.34375 69.584 2.30469C71.1309 3.26562 72.127 4.85352 72.5723 7.06836L67.5449 7.75391C67.2871 6.6875 66.7598 5.88477 65.9629 5.3457C65.1777 4.80664 64.0469 4.53711 62.5703 4.53711C61 4.53711 59.8223 4.7832 59.0371 5.27539C58.252 5.76758 57.8594 6.50586 57.8594 7.49023C57.8594 8.13477 58.0234 8.66211 58.3516 9.07227C58.6914 9.48242 59.1895 9.83398 59.8457 10.127C60.4668 10.4082 61.7969 10.7656 63.8359 11.1992C65.0195 11.457 66.0391 11.7031 66.8945 11.9375C67.75 12.1602 68.4355 12.377 68.9512 12.5879C69.4668 12.8105 69.9238 13.0449 70.3223 13.291C70.7324 13.5371 71.084 13.8008 71.377 14.082C71.9746 14.6562 72.4316 15.3418 72.748 16.1387C73.0645 16.9238 73.2227 17.832 73.2227 18.8633ZM88.2168 5.24023V26H83.0312V5.24023H75.0332V1.23242H96.2324V5.24023H88.2168ZM122.459 13.502C122.459 16.0801 121.938 18.3359 120.895 20.2695C119.863 22.1914 118.404 23.6855 116.518 24.752C114.643 25.8184 112.439 26.3516 109.908 26.3516C107.318 26.3516 105.092 25.8359 103.229 24.8047C101.365 23.7617 99.9355 22.2793 98.9395 20.3574C97.9434 18.4355 97.4453 16.1504 97.4453 13.502C97.4453 10.8535 97.9375 8.58594 98.9219 6.69922C99.918 4.8125 101.348 3.37109 103.211 2.375C105.086 1.36719 107.33 0.863281 109.943 0.863281C112.568 0.863281 114.812 1.37305 116.676 2.39258C118.539 3.40039 119.969 4.84766 120.965 6.73438C121.961 8.62109 122.459 10.877 122.459 13.502ZM117.168 13.502C117.168 10.8301 116.535 8.73828 115.27 7.22656C114.004 5.70312 112.229 4.94141 109.943 4.94141C107.623 4.94141 105.83 5.69727 104.564 7.20898C103.299 8.70898 102.666 10.8066 102.666 13.502C102.666 15.3066 102.959 16.8652 103.545 18.1777C104.131 19.4902 104.963 20.5039 106.041 21.2188C107.131 21.9219 108.42 22.2734 109.908 22.2734C112.229 22.2734 114.016 21.5117 115.27 19.9883C116.535 18.4648 117.168 16.3027 117.168 13.502ZM131.002 10.9883V26H126.396V1.23242H133.34L137.77 15.084C137.969 15.8574 138.174 16.6367 138.385 17.4219C138.596 18.1953 138.801 18.9688 139 19.7422C139.129 19.2969 139.252 18.8574 139.369 18.4238C139.486 17.9785 139.604 17.5332 139.721 17.0879C139.85 16.6426 139.979 16.2031 140.107 15.7695L144.66 1.23242H151.568V26H146.963V10.9883C146.963 10.6484 146.975 9.96875 146.998 8.94922C147.033 7.91797 147.08 6.79883 147.139 5.5918C146.729 7.16211 146.365 8.49805 146.049 9.59961C145.744 10.7012 145.492 11.5625 145.293 12.1836L140.828 26H137.137L132.672 12.1836L130.791 5.5918C130.861 6.95117 130.914 8.08203 130.949 8.98438C130.984 9.875 131.002 10.543 131.002 10.9883ZM161.57 1.23242V26H156.385V1.23242H161.57ZM184.949 21.9395V26H165.068V22.3262L178.463 5.29297H166.404V1.23242H184.229V4.83594L170.834 21.9395H184.949ZM208.609 21.9922V26H188.412V1.23242H207.889V5.24023H193.598V11.4629H206.816V15.4707H193.598V21.9922H208.609ZM233.975 15.8398V26H228.807V15.8398L219.982 1.23242H225.414L231.355 11.709L237.367 1.23242H242.799L233.975 15.8398ZM269.869 13.502C269.869 16.0801 269.348 18.3359 268.305 20.2695C267.273 22.1914 265.814 23.6855 263.928 24.752C262.053 25.8184 259.85 26.3516 257.318 26.3516C254.729 26.3516 252.502 25.8359 250.639 24.8047C248.775 23.7617 247.346 22.2793 246.35 20.3574C245.354 18.4355 244.855 16.1504 244.855 13.502C244.855 10.8535 245.348 8.58594 246.332 6.69922C247.328 4.8125 248.758 3.37109 250.621 2.375C252.496 1.36719 254.74 0.863281 257.354 0.863281C259.979 0.863281 262.223 1.37305 264.086 2.39258C265.949 3.40039 267.379 4.84766 268.375 6.73438C269.371 8.62109 269.869 10.877 269.869 13.502ZM264.578 13.502C264.578 10.8301 263.945 8.73828 262.68 7.22656C261.414 5.70312 259.639 4.94141 257.354 4.94141C255.033 4.94141 253.24 5.69727 251.975 7.20898C250.709 8.70898 250.076 10.8066 250.076 13.502C250.076 15.3066 250.369 16.8652 250.955 18.1777C251.541 19.4902 252.373 20.5039 253.451 21.2188C254.541 21.9219 255.83 22.2734 257.318 22.2734C259.639 22.2734 261.426 21.5117 262.68 19.9883C263.945 18.4648 264.578 16.3027 264.578 13.502ZM284.107 26.3516C281.834 26.3516 279.912 25.9824 278.342 25.2441C276.771 24.4941 275.582 23.4043 274.773 21.9746C273.965 20.5332 273.561 18.7812 273.561 16.7188V1.23242H278.746V16.3145C278.746 18.2715 279.209 19.7598 280.135 20.7793C281.072 21.7871 282.443 22.291 284.248 22.291C286.1 22.291 287.523 21.7637 288.52 20.709C289.516 19.6426 290.014 18.1191 290.014 16.1387V1.23242H295.199V16.4551C295.199 18.541 294.76 20.3223 293.881 21.7988C293.014 23.2754 291.754 24.4062 290.102 25.1914C288.449 25.9648 286.451 26.3516 284.107 26.3516Z" fill="white"/>
<path d="M26.6934 63.0723C26.6934 64.6777 26.3242 66.1016 25.5859 67.3438C24.8594 68.5742 23.8223 69.541 22.4746 70.2441C21.127 70.9355 19.5215 71.2812 17.6582 71.2812H11.5059V80H6.32031V55.2324H17.4473C20.4121 55.2324 22.6914 55.918 24.2852 57.2891C25.8906 58.6484 26.6934 60.5762 26.6934 63.0723ZM21.4727 63.1602C21.4727 60.5586 19.9375 59.2578 16.8672 59.2578H11.5059V67.291H17.0078C18.4375 67.291 19.5391 66.9395 20.3125 66.2363C21.0859 65.5215 21.4727 64.4961 21.4727 63.1602ZM35.5176 69.3828V80H30.332V55.2324H35.5176V65.0938H46.3105V55.2324H51.4961V80H46.3105V69.3828H35.5176ZM80.4297 67.502C80.4297 70.0801 79.9082 72.3359 78.8652 74.2695C77.834 76.1914 76.375 77.6855 74.4883 78.752C72.6133 79.8184 70.4102 80.3516 67.8789 80.3516C65.2891 80.3516 63.0625 79.8359 61.1992 78.8047C59.3359 77.7617 57.9062 76.2793 56.9102 74.3574C55.9141 72.4355 55.416 70.1504 55.416 67.502C55.416 64.8535 55.9082 62.5859 56.8926 60.6992C57.8887 58.8125 59.3184 57.3711 61.1816 56.375C63.0566 55.3672 65.3008 54.8633 67.9141 54.8633C70.5391 54.8633 72.7832 55.373 74.6465 56.3926C76.5098 57.4004 77.9395 58.8477 78.9355 60.7344C79.9316 62.6211 80.4297 64.877 80.4297 67.502ZM75.1387 67.502C75.1387 64.8301 74.5059 62.7383 73.2402 61.2266C71.9746 59.7031 70.1992 58.9414 67.9141 58.9414C65.5938 58.9414 63.8008 59.6973 62.5352 61.209C61.2695 62.709 60.6367 64.8066 60.6367 67.502C60.6367 69.3066 60.9297 70.8652 61.5156 72.1777C62.1016 73.4902 62.9336 74.5039 64.0117 75.2188C65.1016 75.9219 66.3906 76.2734 67.8789 76.2734C70.1992 76.2734 71.9863 75.5117 73.2402 73.9883C74.5059 72.4648 75.1387 70.3027 75.1387 67.502ZM88.9727 65.3926V80H84.3672V55.2324H90.291L101.242 74.4629C101.031 72.6816 100.926 71.0703 100.926 69.6289V55.2324H105.531V80H99.4492L88.6562 60.9277C88.7617 61.8535 88.8379 62.6914 88.8848 63.4414C88.9434 64.1797 88.9727 64.8301 88.9727 65.3926ZM130.58 75.9922V80H110.383V55.2324H129.859V59.2402H115.568V65.4629H128.787V69.4707H115.568V75.9922H130.58ZM164.611 72.8633C164.611 75.2891 163.709 77.1465 161.904 78.4355C160.111 79.7129 157.475 80.3516 153.994 80.3516C147.725 80.3516 144.074 78.084 143.043 73.5488L148.053 72.7227C148.393 74.0352 149.055 74.9902 150.039 75.5879C151.023 76.1738 152.389 76.4668 154.135 76.4668C155.951 76.4668 157.311 76.1914 158.213 75.6406C159.115 75.0898 159.566 74.2637 159.566 73.1621C159.566 72.459 159.361 71.8789 158.951 71.4219C158.541 70.9648 157.955 70.584 157.193 70.2793C156.818 70.127 156.268 69.9629 155.541 69.7871C154.814 69.5996 153.912 69.3945 152.834 69.1719C151.592 68.8789 150.619 68.6328 149.916 68.4336C149.213 68.2227 148.65 68.0234 148.229 67.8359C147.807 67.6367 147.396 67.4199 146.998 67.1855C146.119 66.6582 145.434 65.9551 144.941 65.0762C144.449 64.1973 144.203 63.1016 144.203 61.7891C144.203 59.5508 145.041 57.8398 146.717 56.6562C148.404 55.4609 150.854 54.8633 154.064 54.8633C157.135 54.8633 159.438 55.3438 160.973 56.3047C162.52 57.2656 163.516 58.8535 163.961 61.0684L158.934 61.7539C158.676 60.6875 158.148 59.8848 157.352 59.3457C156.566 58.8066 155.436 58.5371 153.959 58.5371C152.389 58.5371 151.211 58.7832 150.426 59.2754C149.641 59.7676 149.248 60.5059 149.248 61.4902C149.248 62.1348 149.412 62.6621 149.74 63.0723C150.08 63.4824 150.578 63.834 151.234 64.127C151.855 64.4082 153.186 64.7656 155.225 65.1992C156.408 65.457 157.428 65.7031 158.283 65.9375C159.139 66.1602 159.824 66.377 160.34 66.5879C160.855 66.8105 161.312 67.0449 161.711 67.291C162.121 67.5371 162.473 67.8008 162.766 68.082C163.363 68.6562 163.82 69.3418 164.137 70.1387C164.453 70.9238 164.611 71.832 164.611 72.8633ZM179.992 76.2734C183.133 76.2734 185.307 74.7031 186.514 71.5625L191.031 73.2676C190.059 75.6582 188.629 77.4395 186.742 78.6113C184.867 79.7715 182.617 80.3516 179.992 80.3516C177.344 80.3516 175.088 79.8477 173.225 78.8398C171.361 77.8203 169.938 76.3496 168.953 74.4277C167.98 72.5059 167.494 70.1973 167.494 67.502C167.494 64.7832 167.963 62.4863 168.9 60.6113C169.838 58.7363 171.221 57.3125 173.049 56.3398C174.877 55.3555 177.115 54.8633 179.764 54.8633C182.67 54.8633 185.037 55.4492 186.865 56.6211C188.693 57.7812 189.977 59.4922 190.715 61.7539L186.145 63.002C185.758 61.7598 184.996 60.7754 183.859 60.0488C182.734 59.3105 181.404 58.9414 179.869 58.9414C177.525 58.9414 175.744 59.668 174.525 61.1211C173.318 62.5742 172.715 64.7012 172.715 67.502C172.715 69.4004 172.99 71 173.541 72.3008C174.104 73.6016 174.924 74.5918 176.002 75.2715C177.092 75.9395 178.422 76.2734 179.992 76.2734ZM199.627 70.5957V80H194.441V55.2324H206.816C209.77 55.2324 212.049 55.8711 213.654 57.1484C215.26 58.4141 216.062 60.2363 216.062 62.6152C216.062 64.3496 215.57 65.8496 214.586 67.1152C213.602 68.3691 212.271 69.1953 210.596 69.5938L217.293 80H211.457L205.709 70.5957H199.627ZM210.842 62.8262C210.842 61.6426 210.461 60.752 209.699 60.1543C208.938 59.5566 207.795 59.2578 206.271 59.2578H199.627V66.5703H206.412C207.865 66.5703 208.967 66.2422 209.717 65.5859C210.467 64.9297 210.842 64.0098 210.842 62.8262ZM240.654 75.9922V80H220.457V55.2324H239.934V59.2402H225.643V65.4629H238.861V69.4707H225.643V75.9922H240.654ZM264.666 75.9922V80H244.469V55.2324H263.945V59.2402H249.654V65.4629H262.873V69.4707H249.654V75.9922H264.666ZM273.086 65.3926V80H268.48V55.2324H274.404L285.355 74.4629C285.145 72.6816 285.039 71.0703 285.039 69.6289V55.2324H289.645V80H283.562L272.77 60.9277C272.875 61.8535 272.951 62.6914 272.998 63.4414C273.057 64.1797 273.086 64.8301 273.086 65.3926Z" fill="url(#paint0_linear_827_2034)"/>
<defs>
<linearGradient id="paint0_linear_827_2034" x1="115.758" y1="22.2175" x2="323.63" y2="33.6068" gradientUnits="userSpaceOnUse">
<stop offset="0.136595" stop-color="#E346D4"/>
<stop offset="0.774105" stop-color="#4680F1"/>
</linearGradient>
</defs>
</svg>
