<svg width="17" height="18" viewBox="0 0 17 18" fill="none" xmlns="http://www.w3.org/2000/svg">
<path d="M14.2364 4.4446C13.7583 4.56693 13.0798 5.67902 12.7689 6.11563C12.5347 6.47314 12.3108 6.83751 12.1001 7.20978C11.553 8.16737 11.2334 9.23358 10.8034 10.2476C10.3544 9.17769 10.0481 8.05506 9.65749 6.96248C9.24536 5.83299 8.7775 4.72249 8.26106 3.63993C8.16953 3.4733 8.06931 3.31511 7.92614 3.19014C7.58764 2.8843 7.05587 3.05831 6.91065 3.48596C6.87434 3.59353 6.84622 3.69741 6.82935 3.81025C6.69538 5.26614 6.6013 6.7273 6.52971 8.18847C6.46631 9.12021 6.52562 10.0767 6.28836 10.9858C5.87572 10.6626 5.45541 10.3499 5.06732 9.99501C4.49668 9.49829 3.07366 7.92376 2.47029 9.07117C2.32763 9.44398 2.50251 9.83154 2.5746 10.2007C2.64005 10.4749 2.7055 10.7491 2.77249 11.0233C2.90799 11.5774 3.03991 12.1332 3.15342 12.6927C3.31705 13.5322 3.39221 14.3854 3.49755 15.2338C3.50317 15.2797 3.50982 15.325 3.51647 15.3704C2.34451 15.8075 1.30907 16.2773 0.648438 17.4485C1.14903 17.3841 1.63581 17.2845 2.12208 17.1157C2.30616 17.0503 2.48614 16.9744 2.66408 16.8943C2.67278 16.9191 2.69476 16.9317 2.71726 16.9317C2.7459 16.9317 2.77453 16.9122 2.77504 16.8737C2.77504 16.8632 2.77249 16.8542 2.76891 16.8468C3.19331 16.6517 3.61055 16.4376 4.05182 16.2821C5.07448 17.4611 6.66317 17.8861 8.14346 17.9916C8.32089 17.9963 8.50752 18 8.69978 18C9.57108 18 10.5513 17.922 11.26 17.4991C12.3241 16.8885 11.8787 15.5006 10.9742 14.9844C9.18503 13.9967 6.13599 14.475 4.20829 15.1215C4.36476 13.5327 4.10296 11.9197 3.74963 10.3736C4.38419 10.9758 5.09953 11.5875 5.81846 12.1063C6.34819 12.4823 6.96127 12.2466 7.25324 11.6877C7.48078 11.2331 7.54572 10.71 7.59276 10.207C7.68428 8.66093 7.72263 7.11118 7.84944 5.5667C8.54843 7.0943 8.98459 8.72526 9.57006 10.2977C9.74186 10.6974 9.87276 11.1292 10.1156 11.4904C10.4127 11.9112 10.9757 11.9592 11.3377 11.597C11.5939 11.3576 11.7457 11.0138 11.8818 10.6926C12.2228 9.89008 12.4892 9.05536 12.8635 8.26756C13.0788 7.83201 13.3273 7.41385 13.5875 7.00466C13.044 9.39915 12.5562 11.829 12.5143 14.2968C12.5117 14.601 12.5235 14.9053 12.547 15.2085C12.5552 15.6324 12.6743 16.1218 13.091 16.3011C13.1371 16.319 13.1877 16.3327 13.2378 16.3327C13.2715 16.3327 13.3058 16.3264 13.3375 16.31C13.6714 16.1302 13.7726 15.6878 13.722 15.3276C13.6545 14.7012 13.6694 14.07 13.7072 13.4415C13.8483 10.7443 14.578 8.141 15.0862 5.50764C15.1098 5.22606 15.1159 4.91495 14.939 4.67872C14.7789 4.45936 14.49 4.36656 14.2364 4.4446ZM8.3168 15.4083C8.73762 15.4083 9.15793 15.4384 9.57466 15.5038C10.1054 15.6345 10.807 15.788 10.9476 16.4234C10.9875 16.6016 10.7804 16.6844 10.6612 16.7614C10.1545 17.0071 9.58335 17.0435 9.03367 17.0931C8.18845 17.1621 7.34119 17.0746 6.51284 16.9001C5.85118 16.7561 5.21867 16.4587 4.66899 16.0537C5.83124 15.6693 7.07478 15.4083 8.3168 15.4083Z" fill="#FD03C6"/>
<path d="M1.34148 6.68475C1.48823 6.77913 1.61402 6.81868 1.71782 6.81868C2.1596 6.81868 2.18926 6.09891 1.64061 5.85951C1.03162 5.60324 0.808678 6.40264 1.34148 6.68475Z" fill="#FD03C6"/>
<path d="M7.47414 1.50283C8.12352 1.49017 8.03302 0.248898 7.52476 0.0263752C6.60028 -0.219349 6.80481 1.32829 7.47414 1.50283Z" fill="#FD03C6"/>
<path d="M15.7768 0.617188C15.1995 0.82811 14.8273 1.84845 15.2793 2.34201C15.8648 2.29139 16.7202 0.670445 15.7768 0.617188Z" fill="#FD03C6"/>
</svg>
