<svg width="16" height="16" viewBox="0 0 16 16" fill="none" xmlns="http://www.w3.org/2000/svg">
<path fill-rule="evenodd" clip-rule="evenodd" d="M7.99933 9.414L13.6563 15.071C13.8449 15.2532 14.0975 15.3539 14.3597 15.3517C14.6219 15.3494 14.8727 15.2442 15.0582 15.0588C15.2436 14.8734 15.3487 14.6226 15.351 14.3604C15.3533 14.0982 15.2525 13.8456 15.0703 13.657L9.41333 8L15.0703 2.343C15.2525 2.15439 15.3533 1.90179 15.351 1.6396C15.3487 1.3774 15.2436 1.12659 15.0582 0.941178C14.8727 0.75577 14.6219 0.650601 14.3597 0.648323C14.0975 0.646044 13.8449 0.746839 13.6563 0.928997L7.99933 6.586L2.34233 0.928997C2.15288 0.751342 1.90175 0.654362 1.64207 0.658579C1.38238 0.662796 1.13453 0.767878 0.950945 0.951591C0.767362 1.1353 0.662455 1.38323 0.658422 1.64292C0.654389 1.9026 0.751546 2.15367 0.929335 2.343L6.58534 8L0.928335 13.657C0.832825 13.7492 0.756643 13.8596 0.704234 13.9816C0.651825 14.1036 0.624238 14.2348 0.623085 14.3676C0.621931 14.5004 0.647232 14.6321 0.697513 14.755C0.747794 14.8778 0.822047 14.9895 0.91594 15.0834C1.00983 15.1773 1.12148 15.2515 1.24438 15.3018C1.36728 15.3521 1.49896 15.3774 1.63174 15.3762C1.76452 15.3751 1.89574 15.3475 2.01774 15.2951C2.13974 15.2427 2.25009 15.1665 2.34233 15.071L7.99933 9.414Z" fill="white"/>
</svg>
