<svg width="23" height="24" viewBox="0 0 23 24" fill="none" xmlns="http://www.w3.org/2000/svg">
<path d="M19.5741 5.92597C18.9167 6.08908 17.9837 7.57186 17.5563 8.15401C17.2343 8.63069 16.9263 9.11651 16.6367 9.61288C15.8844 10.8897 15.4449 12.3113 14.8537 13.6633C14.2364 12.2368 13.8152 10.7399 13.2781 9.28315C12.7114 7.77716 12.0681 6.29649 11.358 4.85308C11.2321 4.63091 11.0943 4.41998 10.8975 4.25336C10.432 3.84557 9.70084 4.07759 9.50117 4.64778C9.45125 4.79121 9.41258 4.92971 9.38938 5.08017C9.20517 7.02136 9.07581 8.96957 8.97738 10.9178C8.89019 12.1601 8.97175 13.4355 8.64553 14.6476C8.07815 14.2166 7.50022 13.7997 6.96659 13.3265C6.18196 12.6642 4.2253 10.5648 3.39568 12.0947C3.19952 12.5918 3.43997 13.1086 3.5391 13.6007C3.6291 13.9663 3.71909 14.3319 3.81119 14.6975C3.99751 15.4364 4.1789 16.1775 4.33498 16.9234C4.55997 18.0427 4.66332 19.1803 4.80815 20.3116C4.81588 20.3727 4.82502 20.4332 4.83416 20.4936C3.22272 21.0765 1.799 21.7029 0.890625 23.2645C1.57893 23.1787 2.24826 23.0458 2.91688 22.8208C3.16999 22.7336 3.41747 22.6324 3.66214 22.5255C3.67409 22.5586 3.70432 22.5754 3.73526 22.5754C3.77463 22.5754 3.814 22.5494 3.81471 22.4981C3.81471 22.484 3.81119 22.4721 3.80627 22.4623C4.38982 22.2021 4.96353 21.9167 5.57028 21.7093C6.97643 23.2813 9.16088 23.848 11.1963 23.9886C11.4402 23.9949 11.6969 23.9999 11.9612 23.9999C13.1593 23.9999 14.507 23.8958 15.4815 23.332C16.9446 22.5178 16.3322 20.6673 15.0885 19.979C12.6284 18.6621 8.43601 19.2998 5.78542 20.1618C6.00056 18.0434 5.64059 15.8927 5.15477 13.8313C6.02728 14.6342 7.01088 15.4498 7.9994 16.1416C8.72778 16.6429 9.57077 16.3286 9.97222 15.5834C10.2851 14.9773 10.3744 14.2799 10.4391 13.6091C10.5649 11.5477 10.6176 9.48141 10.792 7.4221C11.7531 9.45891 12.3528 11.6335 13.1579 13.7301C13.3941 14.263 13.5741 14.8388 13.908 15.3204C14.3165 15.8815 15.0906 15.9455 15.5884 15.4625C15.9406 15.1433 16.1494 14.6849 16.3364 14.2567C16.8054 13.1866 17.1717 12.0736 17.6863 11.0233C17.9823 10.4425 18.324 9.88497 18.6819 9.33939C17.9345 12.532 17.2638 15.7718 17.2061 19.0622C17.2026 19.4679 17.2188 19.8735 17.2511 20.2778C17.2624 20.8431 17.4262 21.4955 17.9992 21.7346C18.0625 21.7585 18.1321 21.7768 18.201 21.7768C18.2474 21.7768 18.2945 21.7683 18.3381 21.7465C18.7972 21.5068 18.9364 20.9169 18.8668 20.4367C18.774 19.6014 18.7944 18.7599 18.8464 17.9218C19.0405 14.3256 20.0438 10.8545 20.7426 7.34336C20.775 6.96792 20.7834 6.55311 20.5401 6.23813C20.3201 5.94565 19.9228 5.82191 19.5741 5.92597ZM11.4346 20.5443C12.0132 20.5443 12.5912 20.5843 13.1642 20.6715C13.894 20.8459 14.8586 21.0505 15.0519 21.8977C15.1068 22.1353 14.822 22.2457 14.6582 22.3484C13.9615 22.676 13.1761 22.7245 12.4203 22.7906C11.2581 22.8827 10.0932 22.766 8.95417 22.5333C8.0444 22.3413 7.1747 21.9448 6.41889 21.4048C8.01698 20.8923 9.72685 20.5443 11.4346 20.5443Z" fill="#FD03C6"/>
<path d="M1.84283 8.91299C2.04461 9.03884 2.21756 9.09157 2.36029 9.09157C2.96774 9.09157 3.00852 8.13188 2.25412 7.81268C1.41676 7.47099 1.11022 8.53685 1.84283 8.91299Z" fill="#FD03C6"/>
<path d="M10.2772 2.00377C11.1701 1.9869 11.0456 0.331864 10.3468 0.0351669C9.07563 -0.292465 9.35686 1.77105 10.2772 2.00377Z" fill="#FD03C6"/>
<path d="M21.6931 0.822754C20.8994 1.10398 20.3875 2.46444 21.0091 3.12251C21.8141 3.05502 22.9903 0.893764 21.6931 0.822754Z" fill="#FD03C6"/>
</svg>
