<svg width="22" height="18" viewBox="0 0 22 18" fill="none" xmlns="http://www.w3.org/2000/svg">
  <path
    d="M18.8146 1.01048C16.1217 -0.825546 12.7965 0.0312678 11.0012 2.1325C9.20601 0.0312678 5.88076 -0.835746 3.18791 1.01048C1.75989 1.9897 0.862278 3.64212 0.801077 5.38635C0.658275 9.34401 4.16713 12.5163 9.52221 17.3817L9.62422 17.4735C10.3994 18.1774 11.5928 18.1774 12.3681 17.4633L12.4803 17.3613C17.8353 12.5061 21.334 9.33381 21.2014 5.37615C21.1402 3.64212 20.2426 1.9897 18.8146 1.01048ZM11.1032 15.8619L11.0012 15.9639L10.8992 15.8619C6.04396 11.4656 2.84111 8.5586 2.84111 5.61075C2.84111 3.57072 4.37113 2.0407 6.41116 2.0407C7.98199 2.0407 9.51201 3.05052 10.0526 4.44794H11.9601C12.4905 3.05052 14.0205 2.0407 15.5913 2.0407C17.6313 2.0407 19.1614 3.57072 19.1614 5.61075C19.1614 8.5586 15.9585 11.4656 11.1032 15.8619Z"/>
</svg>
