<svg width="29" height="17" viewBox="0 0 29 17" fill="none" xmlns="http://www.w3.org/2000/svg">
<rect width="29" height="17" rx="4" fill="#FD03C6"/>
<path d="M6.52979 10.0664L5.8584 12H4.27393L7.03467 4.43213H8.90381L11.6538 12H10.0854L9.41406 10.0664H6.52979ZM7.96924 5.59766C7.93343 5.74089 7.8833 5.91276 7.81885 6.11328C7.75439 6.3138 7.70785 6.45524 7.6792 6.5376L6.88428 8.87402H9.05957L8.24316 6.48926C8.19303 6.34245 8.14648 6.19385 8.10352 6.04346C8.06055 5.89307 8.01579 5.74447 7.96924 5.59766ZM16.4824 12C16.4753 11.9642 16.4645 11.889 16.4502 11.7744C16.4359 11.6598 16.4233 11.5345 16.4126 11.3984C16.4054 11.2624 16.4019 11.1478 16.4019 11.0547H16.3804C16.2157 11.4056 15.9793 11.6688 15.6714 11.8442C15.3634 12.0197 14.9803 12.1074 14.522 12.1074C13.8452 12.1074 13.3224 11.8442 12.9536 11.3179C12.5848 10.7879 12.4004 10.0485 12.4004 9.09961C12.4004 8.13639 12.5938 7.39339 12.9805 6.87061C13.3708 6.34424 13.9222 6.08105 14.6348 6.08105C15.0465 6.08105 15.401 6.16699 15.6982 6.33887C15.999 6.51074 16.23 6.76676 16.3911 7.10693H16.4019L16.3911 6.15088V4.0293H17.9004V10.7324C17.9004 10.9115 17.904 11.1066 17.9111 11.3179C17.9183 11.5291 17.929 11.7565 17.9434 12H16.4824ZM13.9741 9.09961C13.9741 9.75846 14.0726 10.2526 14.2695 10.582C14.4701 10.9115 14.7673 11.0762 15.1611 11.0762C15.5586 11.0762 15.8665 10.9025 16.085 10.5552C16.3034 10.2043 16.4126 9.70654 16.4126 9.06201C16.4126 8.43538 16.307 7.95378 16.0957 7.61719C15.888 7.27702 15.5801 7.10693 15.1719 7.10693C14.7673 7.10693 14.4665 7.27165 14.2695 7.60107C14.0726 7.92692 13.9741 8.42643 13.9741 9.09961Z" fill="white"/>
<path d="M21.6025 10.8802C21.4708 10.9658 21.3374 10.9707 21.2023 10.8948C21.0674 10.8192 21 10.7024 21 10.5444V6.4555C21 6.29748 21.0674 6.18054 21.2023 6.10468C21.3374 6.0291 21.4708 6.0341 21.6025 6.1197L24.8222 8.16414C24.9407 8.24315 25 8.35509 25 8.49994C25 8.6448 24.9407 8.75673 24.8222 8.83575L21.6025 10.8802Z" fill="white"/>
</svg>
