<svg width="16" height="16" viewBox="0 0 16 16" fill="none" xmlns="http://www.w3.org/2000/svg">
<path d="M10.7329 2.56049C11.092 2.20152 11.579 1.99991 12.0868 2C12.5946 2.00009 13.0815 2.20189 13.4404 2.56099C13.7994 2.92009 14.001 3.40709 14.0009 3.91485C14.0008 4.4226 13.799 4.90952 13.4399 5.26849L12.7069 6.00049L9.99794 3.29449L10.7319 2.56049H10.7329ZM9.29294 4.00149L3.33694 9.95549C3.15616 10.1364 3.0199 10.3569 2.93894 10.5995L2.02494 13.3425C1.99574 13.4305 1.9916 13.5249 2.01297 13.6151C2.03434 13.7054 2.08039 13.7879 2.14596 13.8535C2.21153 13.919 2.29405 13.9651 2.38429 13.9865C2.47452 14.0078 2.56893 14.0037 2.65694 13.9745L5.39994 13.0605C5.64294 12.9805 5.86294 12.8435 6.04394 12.6625L11.9999 6.70849L9.29194 4.00149H9.29294Z"/>
</svg>
